<svg width="32" height="32" viewBox="0 0 32 32" fill="none" xmlns="http://www.w3.org/2000/svg">
<path d="M16 32C17.8675 32 19.4361 30.7202 19.8766 28.9899C20.0128 28.4547 19.5523 28 19 28H13C12.4477 28 11.9872 28.4547 12.1234 28.9899C12.5639 30.7202 14.1325 32 16 32Z" fill="#333333"/>
<path d="M16 4.5H14.6C14.5335 4.5 14.4666 4.50655 14.4016 4.52045C10.8034 5.29021 8.5 8.1641 8.5 12C8.5 13.2556 8.149 16.4102 7.5 19.5C7.29026 20.4985 6.96071 21.3053 6.59818 22.1289C6.31111 22.781 6.78347 23.5 7.49597 23.5H16.5H24.5041C25.2166 23.5 25.689 22.781 25.4019 22.1289C25.0393 21.3053 24.7097 20.4986 24.5 19.5C23.851 16.4102 23.5 13.2556 23.5 12C23.5 8.16408 21.1966 5.29018 17.5984 4.52045C17.5334 4.50655 17.4665 4.5 17.4 4.5H16ZM28.4386 24V24C28.7816 24.6874 28.2037 26 27.4354 26H4.56463C3.79635 26 3.21836 24.6874 3.5614 24V24C5.35844 20.3987 6.00004 13.7583 6.00004 12C6.00004 7.22759 9.34316 3.236 13.8153 2.23937C13.9253 2.21486 14 2.11268 14 2V2C14 0.895431 14.8954 0 16 0C17.1046 0 18 0.895431 18 2V2C18 2.11267 18.0747 2.21485 18.1847 2.23935C22.6569 3.23594 26 7.22755 26 12C26 13.7583 26.6416 20.3987 28.4386 24Z" fill="#333333"/>
</svg>
