<svg width="32" height="32" viewBox="0 0 32 32" fill="none" xmlns="http://www.w3.org/2000/svg">
<circle cx="16" cy="16" r="12.75" stroke="#333333" stroke-width="2.5"/>
<path d="M23.75 25.5C23.75 25.5768 23.6999 25.8279 23.3163 26.2312C22.9474 26.619 22.3691 27.038 21.6036 27.4256C20.0741 28.2003 17.9962 28.75 15.9161 28.75C13.8376 28.75 11.8059 28.201 10.3238 27.4314C9.58206 27.0463 9.02533 26.6304 8.67125 26.2459C8.30525 25.8485 8.25 25.5928 8.25 25.5C8.25 25.3741 8.33421 25.0364 8.73719 24.5201C9.11875 24.0312 9.69976 23.496 10.4435 22.9977C11.9381 21.9964 13.9291 21.25 15.9161 21.25C17.9061 21.25 19.9432 21.9984 21.4846 23.0056C22.2513 23.5066 22.853 24.0445 23.2488 24.5355C23.6688 25.0565 23.75 25.3885 23.75 25.5Z" stroke="#333333" stroke-width="2.5"/>
<circle cx="16" cy="13" r="4.75" stroke="#333333" stroke-width="2.5"/>
</svg>
