<svg width="16" height="16" viewBox="0 0 16 16" fill="none" xmlns="http://www.w3.org/2000/svg">
<path d="M7.99952 16C8.39767 16 8.76865 15.8837 9.08031 15.6831C10.0092 15.0854 9.10409 14 7.99952 14V14C6.89495 14 5.98985 15.0854 6.91873 15.6831C7.23039 15.8837 7.60137 16 7.99952 16Z" fill="#333333"/>
<path d="M8 2.5H7.39988C7.13396 2.5 6.86629 2.52043 6.61133 2.596C5.07639 3.05093 4.5 4.20854 4.5 6C4.5 6.62782 4.3245 8.19724 4 9.74216V9.74216C3.65096 11.4039 2.867 11.5 4.56499 11.5H8H11.435C13.133 11.5 12.349 11.4039 12 9.74216V9.74216C11.6755 8.19724 11.5 6.62782 11.5 6C11.5 4.20852 10.9236 3.05091 9.38865 2.59599C9.1337 2.52043 8.86605 2.5 8.60014 2.5H8ZM14.2193 12V12C14.3908 12.3437 14.1018 13 13.7177 13H2.28231C1.89817 13 1.60918 12.3437 1.7807 12V12C2.67922 10.1994 3.00002 6.87916 3.00002 6C3.00002 3.61379 4.67158 1.618 6.90764 1.11969C6.96263 1.10743 7 1.05634 7 1V1C7 0.447715 7.44772 0 8 0C8.55228 0 9 0.447715 9 1V1C9 1.05633 9.03737 1.10742 9.09236 1.11968C11.3284 1.61797 13 3.61377 13 6C13 6.87916 13.3208 10.1994 14.2193 12Z" fill="#333333"/>
</svg>
