<svg width="16" height="16" viewBox="0 0 16 16" fill="none" xmlns="http://www.w3.org/2000/svg">
<path d="M8.53846 0.16565C8.32818 -0.0551984 7.67182 -0.0552411 7.46154 0.165608L1.15771 7.11736C1.05673 7.22341 1 7.36725 1 7.51724V15.4345C1 15.7468 1.24108 16 1.53846 16H6.38462C6.682 16 6.92308 15.7468 6.92308 15.4345V11.4759H9.07692V15.4345C9.07692 15.7468 9.318 16 9.61539 16H14.4615C14.7589 16 15 15.7468 15 15.4345V7.51724C15 7.36725 14.9433 7.22341 14.8423 7.11736L13.3846 5.58644L11.2308 3.32438C11.2531 7.07224 13.682 5.58644 13.3846 5.58644L11.2308 3.32438C12.3077 6.48324 13.3846 5.27412 13.3846 5.58644L11.2308 3.32438L8.53846 0.16565ZM2.61538 14.3034V7.75148L8 1.90453L13.3846 7.75148V14.3034H10.6923V10.3448C10.6923 10.0325 10.4512 9.77931 10.1538 9.77931H5.84615C5.54877 9.77931 5.30769 10.0325 5.30769 10.3448V14.3034H2.61538Z" fill="#333333"/>
</svg>
