<svg width="32" height="32" viewBox="0 0 32 32" fill="none" xmlns="http://www.w3.org/2000/svg">
<path d="M16.7071 2.29289C16.3166 1.90237 15.6834 1.90237 15.2929 2.29289L3.29289 14.2929C3.10536 14.4804 3 14.7348 3 15V29C3 29.5523 3.44772 30 4 30H13C13.5523 30 14 29.5523 14 29V21H18V29C18 29.5523 18.4477 30 19 30H28C28.5523 30 29 29.5523 29 29V15C29 14.7348 28.8946 14.4804 28.7071 14.2929L26 11.5858L22 7.58579L16.7071 2.29289ZM5.5 27.5V15.5L16 5L26.5 15.5V27.5H20.5V20C20.5 19.4477 19.5523 18.5 19 18.5H13C12.4477 18.5 11.5 19.4477 11.5 20V27.5H5.5Z" fill="#333333"/>
</svg>
