<svg width="16" height="16" viewBox="0 0 16 16" fill="none" xmlns="http://www.w3.org/2000/svg">
<path d="M8 16C8.39815 16 8.76913 15.8837 9.08079 15.6831C10.0097 15.0854 9.10457 14 8 14V14C6.89543 14 5.99033 15.0854 6.91921 15.6831C7.23087 15.8837 7.60185 16 8 16Z" fill="#333333"/>
<path d="M8.7972 2.07924C8.27459 1.9737 7.72542 1.9737 7.20281 2.07925V2.07925C5.37552 2.44829 4.00002 4.06463 4.00002 6C4.00002 6.62782 3.86566 8.19725 3.54116 9.74216V9.74216C3.12287 11.7336 2.2374 12 4.27226 12H11.7278C13.7626 12 12.8771 11.7336 12.4589 9.74216V9.74216C12.1344 8.19724 12 6.62782 12 6C12 4.06462 10.6245 2.44827 8.7972 2.07924V2.07924ZM14.2193 12V12C14.3908 12.3437 14.1018 13 13.7177 13H2.28231C1.89817 13 1.60918 12.3437 1.7807 12V12C2.67922 10.1994 3.00002 6.87916 3.00002 6C3.00002 3.61379 4.67158 1.618 6.90764 1.11969C6.96263 1.10743 7 1.05634 7 1V1C7 0.447715 7.44772 0 8 0C8.55228 0 9 0.447715 9 1V1C9 1.05633 9.03737 1.10742 9.09236 1.11968C11.3284 1.61797 13 3.61377 13 6C13 6.87916 13.3208 10.1994 14.2193 12Z" fill="#333333"/>
</svg>
